# xmcd
#
# Track frame offsets:
#	150
#	20425
#	42098
#	58938
#	84279
#	100662
#	114498
#	135530
#	156332
#	173022
#
# Disc length: 2548 seconds
#
# Revision: 1
# Processed by: cddbd v1.5.2PL0 Copyright (c) Steve Scherf et al.
# Submitted via: EasyCDDAExtractor 12.0.1.1
#
DISCID=7509f20a
DTITLE=Various Artist - CD1 Blue Sky - 어쩌면 우리는.....
DYEAR=1900
DGENRE=
TTITLE0=어른아이 - Annabel lee(single ver.)
TTITLE1=참깨와 솜사탕 - 공놀이
TTITLE2=Lucia(심규선) - Savior
TTITLE3=Epitone Project - 나는 그 사람이 아프다 (feat. 타루)
TTITLE4=Besweet - 이미 없는데
TTITLE5=Ephemera - Close
TTITLE6=Epitone Project - 다음날 아침 (Duet with 한희정)
TTITLE7=Koop - Koop Island Blues
TTITLE8=Herz Analog - 그땐 왜 몰랐었는지 (Vocal by Epitone Project)
TTITLE9=짙은 - December
EXTD=
EXTT0=
EXTT1=
EXTT2=
EXTT3=
EXTT4=
EXTT5=
EXTT6=
EXTT7=
EXTT8=
EXTT9=
PLAYORDER=
